<?xml version="1.0" encoding="UTF-8" standalone="no"?>
<!-- Created with Inkscape (http://www.inkscape.org/) -->
<svg
   xmlns:dc="http://purl.org/dc/elements/1.1/"
   xmlns:cc="http://creativecommons.org/ns#"
   xmlns:rdf="http://www.w3.org/1999/02/22-rdf-syntax-ns#"
   xmlns:svg="http://www.w3.org/2000/svg"
   xmlns="http://www.w3.org/2000/svg"
   xmlns:sodipodi="http://sodipodi.sourceforge.net/DTD/sodipodi-0.dtd"
   xmlns:inkscape="http://www.inkscape.org/namespaces/inkscape"
   id="svg2403"
   sodipodi:version="0.32"
   inkscape:version="0.46"
   width="1052.3622"
   height="495.24115"
   xml:space="preserve"
   sodipodi:docname="Velib.svg"
   version="1.0"
   inkscape:output_extension="org.inkscape.output.svg.inkscape"><metadata
     id="metadata2408"><rdf:RDF><cc:Work
         rdf:about=""><dc:format>image/svg+xml</dc:format><dc:type
           rdf:resource="http://purl.org/dc/dcmitype/StillImage" /></cc:Work></rdf:RDF></metadata><defs
     id="defs2406"><inkscape:perspective
       sodipodi:type="inkscape:persp3d"
       inkscape:vp_x="0 : 526.18109 : 1"
       inkscape:vp_y="0 : 1000 : 0"
       inkscape:vp_z="744.09448 : 526.18109 : 1"
       inkscape:persp3d-origin="372.04724 : 350.78739 : 1"
       id="perspective2410" /><clipPath
       clipPathUnits="userSpaceOnUse"
       id="clipPath2418"><path
         d="M -14.215,-9.318 L 141.732,-9.318 L 141.732,181.417 L -14.215,181.417 L -14.215,-9.318 z"
         id="path2420" /></clipPath><clipPath
       clipPathUnits="userSpaceOnUse"
       id="clipPath2426"><path
         d="M 0,0 L 141.732,0 L 141.732,181.417 L 0,181.417 L 0,0 z"
         id="path2428" /></clipPath><clipPath
       clipPathUnits="userSpaceOnUse"
       id="clipPath2436"><path
         d="M -31691.2,-32269.2 L 2600.78,-32269.2 L 2600.78,-10637.2 L -31691.2,-10637.2 L -31691.2,-32269.2 z"
         id="path2438" /></clipPath><clipPath
       clipPathUnits="userSpaceOnUse"
       id="clipPath2444"><path
         d="M 0,0 L 566.928,0 L 566.928,725.669 L 0,725.669 L 0,0 z"
         id="path2446" /></clipPath><clipPath
       clipPathUnits="userSpaceOnUse"
       id="clipPath2452"><path
         d="M 0,0 L 566.928,0 L 566.928,725.669 L 0,725.669 L 0,0 z"
         id="path2454" /></clipPath><clipPath
       clipPathUnits="userSpaceOnUse"
       id="clipPath2462"><path
         d="M 32768,32768 L -32768,32768 L -32768,-32768 L 32768,-32768 L 32768,32768 z"
         id="path2464" /></clipPath><clipPath
       clipPathUnits="userSpaceOnUse"
       id="clipPath2470"><path
         d="M -13.52,225.004 L 141.732,225.004 L 141.732,329.421 L -13.52,329.421 L -13.52,225.004 z"
         id="path2472" /></clipPath><clipPath
       clipPathUnits="userSpaceOnUse"
       id="clipPath2480"><path
         d="M -31690.5,-32502.5 L 25580,-32502.5 L 25580,13954.5 L -31690.5,13954.5 L -31690.5,-32502.5 z"
         id="path2482" /></clipPath><clipPath
       clipPathUnits="userSpaceOnUse"
       id="clipPath2488"><path
         d="M 0,900.017 L 566.928,900.017 L 566.928,1317.685 L 0,1317.685 L 0,900.017 z"
         id="path2490" /></clipPath><clipPath
       clipPathUnits="userSpaceOnUse"
       id="clipPath2498"><path
         d="M 32768,32768 L -32768,32768 L -32768,-32768 L 32768,-32768 L 32768,32768 z"
         id="path2500" /></clipPath><clipPath
       clipPathUnits="userSpaceOnUse"
       id="clipPath2506"><path
         d="M 19.434,187.583 L 122.761,187.583 L 122.761,211.146 L 19.434,211.146 L 19.434,187.583 z"
         id="path2508" /></clipPath><clipPath
       clipPathUnits="userSpaceOnUse"
       id="clipPath2516"><path
         d="M -31657.6,-32465.1 L 22920.4,-32465.1 L 22920.4,-13947.6 L -31657.6,-13947.6 L -31657.6,-32465.1 z"
         id="path2518" /></clipPath><clipPath
       clipPathUnits="userSpaceOnUse"
       id="clipPath2524"><path
         d="M 77.736,750.333 L 491.044,750.333 L 491.044,844.585 L 77.736,844.585 L 77.736,750.333 z"
         id="path2526" /></clipPath><clipPath
       clipPathUnits="userSpaceOnUse"
       id="clipPath2534"><path
         d="M 32768,32768 L -32768,32768 L -32768,-32768 L 32768,-32768 L 32768,32768 z"
         id="path2536" /></clipPath><clipPath
       clipPathUnits="userSpaceOnUse"
       id="clipPath2542"><path
         d="M 11.479,72.279 L 132.428,72.279 L 132.428,180.366 L 11.479,180.366 L 11.479,72.279 z"
         id="path2544" /></clipPath><clipPath
       clipPathUnits="userSpaceOnUse"
       id="clipPath2552"><path
         d="M -31653.9,-32396.4 L -21676.4,-32396.4 L -21676.4,-19842.4 L -31653.9,-19842.4 L -31653.9,-32396.4 z"
         id="path2554" /></clipPath><clipPath
       clipPathUnits="userSpaceOnUse"
       id="clipPath2560"><path
         d="M 45.916,289.117 L 529.712,289.117 L 529.712,721.465 L 45.916,721.465 L 45.916,289.117 z"
         id="path2562" /></clipPath><clipPath
       clipPathUnits="userSpaceOnUse"
       id="clipPath2570"><path
         d="M 32768,32768 L -32768,32768 L -32768,-32768 L 32768,-32768 L 32768,32768 z"
         id="path2572" /></clipPath><clipPath
       clipPathUnits="userSpaceOnUse"
       id="clipPath2578"><path
         d="M 46.804,87.262 L 67.104,58.274 L 38.579,38.299 L 18.279,67.287"
         clip-rule="evenodd"
         id="path2580" /></clipPath><clipPath
       clipPathUnits="userSpaceOnUse"
       id="clipPath2588"><path
         d="M -9801.99,-30679.2 L 15224.5,-30679.2 L 15224.5,6609.79 L -9801.99,6609.79 L -9801.99,-30679.2 z"
         id="path2590" /></clipPath><clipPath
       clipPathUnits="userSpaceOnUse"
       id="clipPath2596"><path
         d="M 187.215,349.048 L 268.414,233.096 L 154.317,153.196 L 73.118,269.148"
         clip-rule="evenodd"
         id="path2598" /></clipPath><clipPath
       clipPathUnits="userSpaceOnUse"
       id="clipPath2606"><path
         d="M 32768,32768 L -32768,32768 L -32768,-32768 L 32768,-32768 L 32768,32768 z"
         id="path2608" /></clipPath><clipPath
       clipPathUnits="userSpaceOnUse"
       id="clipPath2614"><path
         d="M 154.388,379.842 L 204.094,379.842 L 204.094,434.996 L 154.388,434.996 L 154.388,379.842 z"
         id="path2616" /></clipPath><clipPath
       clipPathUnits="userSpaceOnUse"
       id="clipPath2624"><path
         d="M -31522.6,-32661.2 L 18238.9,-32661.2 L 18238.9,-25786.2 L -31522.6,-25786.2 L -31522.6,-32661.2 z"
         id="path2626" /></clipPath><clipPath
       clipPathUnits="userSpaceOnUse"
       id="clipPath2632"><path
         d="M 617.552,1519.369 L 816.376,1519.369 L 816.376,1739.985 L 617.552,1739.985 L 617.552,1519.369 z"
         id="path2634" /></clipPath><clipPath
       clipPathUnits="userSpaceOnUse"
       id="clipPath2642"><path
         d="M 32768,32768 L -32768,32768 L -32768,-32768 L 32768,-32768 L 32768,32768 z"
         id="path2644" /></clipPath><clipPath
       clipPathUnits="userSpaceOnUse"
       id="clipPath2650"><path
         d="M -14.605,-11.339 L 1138.144,-11.339 L 1138.144,11.338 L -14.605,11.338 L -14.605,-11.339 z"
         id="path2652" /></clipPath><clipPath
       clipPathUnits="userSpaceOnUse"
       id="clipPath2658"><path
         d="M 0,0 L 1138.144,0 L 1138.144,11.338 L 0,11.338 L 0,0 z"
         id="path2660" /></clipPath><clipPath
       clipPathUnits="userSpaceOnUse"
       id="clipPath2668"><path
         d="M -31691.6,-32266.1 L -23499.6,-32266.1 L -23499.6,22685.9 L -31691.6,22685.9 L -31691.6,-32266.1 z"
         id="path2670" /></clipPath><clipPath
       clipPathUnits="userSpaceOnUse"
       id="clipPath2676"><path
         d="M 0,0 L 4552.576,0 L 4552.576,45.353 L 0,45.353 L 0,0 z"
         id="path2678" /></clipPath><clipPath
       clipPathUnits="userSpaceOnUse"
       id="clipPath2684"><path
         d="M 0,0 L 4552.576,0 L 4552.576,45.353 L 0,45.353 L 0,0 z"
         id="path2686" /></clipPath><clipPath
       clipPathUnits="userSpaceOnUse"
       id="clipPath2694"><path
         d="M 32768,32768 L -32768,32768 L -32768,-32768 L 32768,-32768 L 32768,32768 z"
         id="path2696" /></clipPath><clipPath
       clipPathUnits="userSpaceOnUse"
       id="clipPath2702"><path
         d="M 1119.4,-11.339 L 1308.441,-11.339 L 1308.441,11.338 L 1119.4,11.338 L 1119.4,-11.339 z"
         id="path2704" /></clipPath><clipPath
       clipPathUnits="userSpaceOnUse"
       id="clipPath2712"><path
         d="M -31934.1,-32266.1 L -30557.6,-32266.1 L -30557.6,22685.9 L -31934.1,22685.9 L -31934.1,-32266.1 z"
         id="path2714" /></clipPath><clipPath
       clipPathUnits="userSpaceOnUse"
       id="clipPath2720"><path
         d="M 4477.6,0 L 5102,0 L 5102,45.353 L 4477.6,45.353 L 4477.6,0 z"
         id="path2722" /></clipPath><clipPath
       clipPathUnits="userSpaceOnUse"
       id="clipPath2730"><path
         d="M 32768,32768 L -32768,32768 L -32768,-32768 L 32768,-32768 L 32768,32768 z"
         id="path2732" /></clipPath><clipPath
       clipPathUnits="userSpaceOnUse"
       id="clipPath2738"><path
         d="M 1137.543,225.392 L 1239.591,225.392 L 1239.591,321.77 L 1137.543,321.77 L 1137.543,225.392 z"
         id="path2740" /></clipPath><clipPath
       clipPathUnits="userSpaceOnUse"
       id="clipPath2748"><path
         d="M -30539.5,-32502.8 L 629.544,-32502.8 L 629.544,12939.7 L -30539.5,12939.7 L -30539.5,-32502.8 z"
         id="path2750" /></clipPath><clipPath
       clipPathUnits="userSpaceOnUse"
       id="clipPath2756"><path
         d="M 4550.172,901.569 L 4958.364,901.569 L 4958.364,1287.081 L 4550.172,1287.081 L 4550.172,901.569 z"
         id="path2758" /></clipPath><clipPath
       clipPathUnits="userSpaceOnUse"
       id="clipPath2766"><path
         d="M 32768,32768 L -32768,32768 L -32768,-32768 L 32768,-32768 L 32768,32768 z"
         id="path2768" /></clipPath><clipPath
       clipPathUnits="userSpaceOnUse"
       id="clipPath2774"><path
         d="M 572.468,226.392 L 674.515,226.392 L 674.515,322.77 L 572.468,322.77 L 572.468,226.392 z"
         id="path2776" /></clipPath><clipPath
       clipPathUnits="userSpaceOnUse"
       id="clipPath2784"><path
         d="M -31104.5,-32503.9 L 18.4702,-32503.9 L 18.4702,13009.1 L -31104.5,13009.1 L -31104.5,-32503.9 z"
         id="path2786" /></clipPath><clipPath
       clipPathUnits="userSpaceOnUse"
       id="clipPath2792"><path
         d="M 2289.872,905.569 L 2698.06,905.569 L 2698.06,1291.081 L 2289.872,1291.081 L 2289.872,905.569 z"
         id="path2794" /></clipPath><clipPath
       clipPathUnits="userSpaceOnUse"
       id="clipPath2802"><path
         d="M 32768,32768 L -32768,32768 L -32768,-32768 L 32768,-32768 L 32768,32768 z"
         id="path2804" /></clipPath><clipPath
       clipPathUnits="userSpaceOnUse"
       id="clipPath2810"><path
         d="M 685.483,226.392 L 787.53,226.392 L 787.53,322.77 L 685.483,322.77 L 685.483,226.392 z"
         id="path2812" /></clipPath><clipPath
       clipPathUnits="userSpaceOnUse"
       id="clipPath2820"><path
         d="M -30991.5,-32503.8 L 227.984,-32503.8 L 227.984,12650.2 L -30991.5,12650.2 L -30991.5,-32503.8 z"
         id="path2822" /></clipPath><clipPath
       clipPathUnits="userSpaceOnUse"
       id="clipPath2828"><path
         d="M 2741.932,905.569 L 3150.12,905.569 L 3150.12,1291.081 L 2741.932,1291.081 L 2741.932,905.569 z"
         id="path2830" /></clipPath><clipPath
       clipPathUnits="userSpaceOnUse"
       id="clipPath2838"><path
         d="M 32768,32768 L -32768,32768 L -32768,-32768 L 32768,-32768 L 32768,32768 z"
         id="path2840" /></clipPath><clipPath
       clipPathUnits="userSpaceOnUse"
       id="clipPath2846"><path
         d="M 798.498,225.392 L 900.545,225.392 L 900.545,321.769 L 798.498,321.769 L 798.498,225.392 z"
         id="path2848" /></clipPath><clipPath
       clipPathUnits="userSpaceOnUse"
       id="clipPath2856"><path
         d="M -30878.5,-32502.8 L 290.499,-32502.8 L 290.499,12697.7 L -30878.5,12697.7 L -30878.5,-32502.8 z"
         id="path2858" /></clipPath><clipPath
       clipPathUnits="userSpaceOnUse"
       id="clipPath2864"><path
         d="M 3193.992,901.569 L 3602.18,901.569 L 3602.18,1287.077 L 3193.992,1287.077 L 3193.992,901.569 z"
         id="path2866" /></clipPath><clipPath
       clipPathUnits="userSpaceOnUse"
       id="clipPath2874"><path
         d="M 32768,32768 L -32768,32768 L -32768,-32768 L 32768,-32768 L 32768,32768 z"
         id="path2876" /></clipPath><clipPath
       clipPathUnits="userSpaceOnUse"
       id="clipPath2882"><path
         d="M 183.495,53.236 L 285.542,53.236 L 285.542,149.614 L 183.495,149.614 L 183.495,53.236 z"
         id="path2884" /></clipPath><clipPath
       clipPathUnits="userSpaceOnUse"
       id="clipPath2892"><path
         d="M -31493.5,-32330.7 L -412.503,-32330.7 L -412.503,12953.3 L -31493.5,12953.3 L -31493.5,-32330.7 z"
         id="path2894" /></clipPath><clipPath
       clipPathUnits="userSpaceOnUse"
       id="clipPath2900"><path
         d="M 733.98,212.945 L 1142.168,212.945 L 1142.168,598.457 L 733.98,598.457 L 733.98,212.945 z"
         id="path2902" /></clipPath><clipPath
       clipPathUnits="userSpaceOnUse"
       id="clipPath2910"><path
         d="M 32768,32768 L -32768,32768 L -32768,-32768 L 32768,-32768 L 32768,32768 z"
         id="path2912" /></clipPath><clipPath
       clipPathUnits="userSpaceOnUse"
       id="clipPath2918"><path
         d="M 296.51,53.236 L 398.558,53.236 L 398.558,149.614 L 296.51,149.614 L 296.51,53.236 z"
         id="path2920" /></clipPath><clipPath
       clipPathUnits="userSpaceOnUse"
       id="clipPath2928"><path
         d="M -31278.4,-32330.7 L 2910.56,-32330.7 L 2910.56,12703.3 L -31278.4,12703.3 L -31278.4,-32330.7 z"
         id="path2930" /></clipPath><clipPath
       clipPathUnits="userSpaceOnUse"
       id="clipPath2936"><path
         d="M 1186.04,212.945 L 1594.232,212.945 L 1594.232,598.457 L 1186.04,598.457 L 1186.04,212.945 z"
         id="path2938" /></clipPath><clipPath
       clipPathUnits="userSpaceOnUse"
       id="clipPath2946"><path
         d="M 32768,32768 L -32768,32768 L -32768,-32768 L 32768,-32768 L 32768,32768 z"
         id="path2948" /></clipPath><clipPath
       clipPathUnits="userSpaceOnUse"
       id="clipPath2954"><path
         d="M 409.526,53.236 L 511.573,53.236 L 511.573,149.614 L 409.526,149.614 L 409.526,53.236 z"
         id="path2956" /></clipPath><clipPath
       clipPathUnits="userSpaceOnUse"
       id="clipPath2964"><path
         d="M -31267.5,-32330.7 L 79.5246,-32330.7 L 79.5246,12703.3 L -31267.5,12703.3 L -31267.5,-32330.7 z"
         id="path2966" /></clipPath><clipPath
       clipPathUnits="userSpaceOnUse"
       id="clipPath2972"><path
         d="M 1638.104,212.945 L 2046.292,212.945 L 2046.292,598.457 L 1638.104,598.457 L 1638.104,212.945 z"
         id="path2974" /></clipPath><clipPath
       clipPathUnits="userSpaceOnUse"
       id="clipPath2982"><path
         d="M 32768,32768 L -32768,32768 L -32768,-32768 L 32768,-32768 L 32768,32768 z"
         id="path2984" /></clipPath><clipPath
       clipPathUnits="userSpaceOnUse"
       id="clipPath2990"><path
         d="M 522.541,53.236 L 624.588,53.236 L 624.588,149.614 L 522.541,149.614 L 522.541,53.236 z"
         id="path2992" /></clipPath><clipPath
       clipPathUnits="userSpaceOnUse"
       id="clipPath3000"><path
         d="M -31154.5,-32330.7 L 192.541,-32330.7 L 192.541,12703.3 L -31154.5,12703.3 L -31154.5,-32330.7 z"
         id="path3002" /></clipPath><clipPath
       clipPathUnits="userSpaceOnUse"
       id="clipPath3008"><path
         d="M 2090.164,212.945 L 2498.352,212.945 L 2498.352,598.457 L 2090.164,598.457 L 2090.164,212.945 z"
         id="path3010" /></clipPath><clipPath
       clipPathUnits="userSpaceOnUse"
       id="clipPath3018"><path
         d="M 32768,32768 L -32768,32768 L -32768,-32768 L 32768,-32768 L 32768,32768 z"
         id="path3020" /></clipPath><clipPath
       clipPathUnits="userSpaceOnUse"
       id="clipPath3026"><path
         d="M 635.557,53.236 L 737.604,53.236 L 737.604,149.614 L 635.557,149.614 L 635.557,53.236 z"
         id="path3028" /></clipPath><clipPath
       clipPathUnits="userSpaceOnUse"
       id="clipPath3036"><path
         d="M -31041.4,-32330.7 L 178.056,-32330.7 L 178.056,12823.3 L -31041.4,12823.3 L -31041.4,-32330.7 z"
         id="path3038" /></clipPath><clipPath
       clipPathUnits="userSpaceOnUse"
       id="clipPath3044"><path
         d="M 2542.228,212.945 L 2950.416,212.945 L 2950.416,598.457 L 2542.228,598.457 L 2542.228,212.945 z"
         id="path3046" /></clipPath><clipPath
       clipPathUnits="userSpaceOnUse"
       id="clipPath3054"><path
         d="M 32768,32768 L -32768,32768 L -32768,-32768 L 32768,-32768 L 32768,32768 z"
         id="path3056" /></clipPath><clipPath
       clipPathUnits="userSpaceOnUse"
       id="clipPath3062"><path
         d="M 748.572,53.236 L 850.619,53.236 L 850.619,149.614 L 748.572,149.614 L 748.572,53.236 z"
         id="path3064" /></clipPath><clipPath
       clipPathUnits="userSpaceOnUse"
       id="clipPath3072"><path
         d="M -30928.4,-32330.7 L 158.573,-32330.7 L 158.573,12946.8 L -30928.4,12946.8 L -30928.4,-32330.7 z"
         id="path3074" /></clipPath><clipPath
       clipPathUnits="userSpaceOnUse"
       id="clipPath3080"><path
         d="M 2994.288,212.945 L 3402.476,212.945 L 3402.476,598.457 L 2994.288,598.457 L 2994.288,212.945 z"
         id="path3082" /></clipPath><clipPath
       clipPathUnits="userSpaceOnUse"
       id="clipPath3090"><path
         d="M 32768,32768 L -32768,32768 L -32768,-32768 L 32768,-32768 L 32768,32768 z"
         id="path3092" /></clipPath><clipPath
       clipPathUnits="userSpaceOnUse"
       id="clipPath3098"><path
         d="M 861.587,53.236 L 963.634,53.236 L 963.634,149.614 L 861.587,149.614 L 861.587,53.236 z"
         id="path3100" /></clipPath><clipPath
       clipPathUnits="userSpaceOnUse"
       id="clipPath3108"><path
         d="M -30815.4,-32330.7 L 271.588,-32330.7 L 271.588,12946.8 L -30815.4,12946.8 L -30815.4,-32330.7 z"
         id="path3110" /></clipPath><clipPath
       clipPathUnits="userSpaceOnUse"
       id="clipPath3116"><path
         d="M 3446.348,212.945 L 3854.536,212.945 L 3854.536,598.457 L 3446.348,598.457 L 3446.348,212.945 z"
         id="path3118" /></clipPath><clipPath
       clipPathUnits="userSpaceOnUse"
       id="clipPath3126"><path
         d="M 32768,32768 L -32768,32768 L -32768,-32768 L 32768,-32768 L 32768,32768 z"
         id="path3128" /></clipPath><clipPath
       clipPathUnits="userSpaceOnUse"
       id="clipPath3134"><path
         d="M 1024.528,225.392 L 1126.575,225.392 L 1126.575,321.77 L 1024.528,321.77 L 1024.528,225.392 z"
         id="path3136" /></clipPath><clipPath
       clipPathUnits="userSpaceOnUse"
       id="clipPath3144"><path
         d="M -30652.5,-32502.8 L 428.529,-32502.8 L 428.529,12781.2 L -30652.5,12781.2 L -30652.5,-32502.8 z"
         id="path3146" /></clipPath><clipPath
       clipPathUnits="userSpaceOnUse"
       id="clipPath3152"><path
         d="M 4098.112,901.569 L 4506.3,901.569 L 4506.3,1287.081 L 4098.112,1287.081 L 4098.112,901.569 z"
         id="path3154" /></clipPath><clipPath
       clipPathUnits="userSpaceOnUse"
       id="clipPath3162"><path
         d="M 32768,32768 L -32768,32768 L -32768,-32768 L 32768,-32768 L 32768,32768 z"
         id="path3164" /></clipPath><clipPath
       clipPathUnits="userSpaceOnUse"
       id="clipPath3170"><path
         d="M 1197.938,52.895 L 1288.868,52.895 L 1288.868,149.749 L 1197.938,149.749 L 1197.938,52.895 z"
         id="path3172" /></clipPath><clipPath
       clipPathUnits="userSpaceOnUse"
       id="clipPath3180"><path
         d="M -30479.1,-32330.4 L -28185.1,-32330.4 L -28185.1,28421.6 L -30479.1,28421.6 L -30479.1,-32330.4 z"
         id="path3182" /></clipPath><clipPath
       clipPathUnits="userSpaceOnUse"
       id="clipPath3188"><path
         d="M 4791.752,211.581 L 5102,211.581 L 5102,598.997 L 4791.752,598.997 L 4791.752,211.581 z"
         id="path3190" /></clipPath><clipPath
       clipPathUnits="userSpaceOnUse"
       id="clipPath3198"><path
         d="M 32768,32768 L -32768,32768 L -32768,-32768 L 32768,-32768 L 32768,32768 z"
         id="path3200" /></clipPath><clipPath
       clipPathUnits="userSpaceOnUse"
       id="clipPath3206"><path
         d="M 153.071,53.169 L 176.682,53.169 L 176.682,149.062 L 153.071,149.062 L 153.071,53.169 z"
         id="path3208" /></clipPath><clipPath
       clipPathUnits="userSpaceOnUse"
       id="clipPath3216"><path
         d="M -31523.9,-32330.6 L 13991.1,-32330.6 L 13991.1,-3101.63 L -31523.9,-3101.63 L -31523.9,-32330.6 z"
         id="path3218" /></clipPath><clipPath
       clipPathUnits="userSpaceOnUse"
       id="clipPath3224"><path
         d="M 612.284,212.677 L 706.728,212.677 L 706.728,596.249 L 612.284,596.249 L 612.284,212.677 z"
         id="path3226" /></clipPath><clipPath
       clipPathUnits="userSpaceOnUse"
       id="clipPath3234"><path
         d="M 32768,32768 L -32768,32768 L -32768,-32768 L 32768,-32768 L 32768,32768 z"
         id="path3236" /></clipPath><clipPath
       clipPathUnits="userSpaceOnUse"
       id="clipPath3242"><path
         d="M 52.693,40.923 L 137.732,40.923 L 137.732,77.74 L 52.693,77.74 L 52.693,40.923 z"
         id="path3244" /></clipPath><clipPath
       clipPathUnits="userSpaceOnUse"
       id="clipPath3252"><path
         d="M 1091,37.00031 L 2366.5908,37.00031 L 2366.5908,490.5433 L 1091,490.5433 L 1091,37.00031 z"
         id="path3254" /></clipPath><clipPath
       clipPathUnits="userSpaceOnUse"
       id="clipPath3262"><path
         d="M 210.772,163.6932 L 550.9283,163.6932 L 550.9283,310.9611 L 210.772,310.9611 L 210.772,163.6932 z"
         id="path3264" /></clipPath><clipPath
       clipPathUnits="userSpaceOnUse"
       id="clipPath3272"><path
         d="M -0.79963,-1.20962 L 17.16099,-1.20962 L 17.16099,12.19611 L -0.79963,12.19611 L -0.79963,-1.20962 z"
         id="path3274" /></clipPath><clipPath
       clipPathUnits="userSpaceOnUse"
       id="clipPath3282"><path
         d="M 210.772,163.6932 L 550.9283,163.6932 L 550.9283,310.9611 L 210.772,310.9611 L 210.772,163.6932 z"
         id="path3284" /></clipPath><clipPath
       clipPathUnits="userSpaceOnUse"
       id="clipPath3290"><path
         d="M 227.1641,126.2772 L 511.2503,126.2772 L 511.2503,299.0238 L 227.1641,299.0238 L 227.1641,126.2772 z"
         id="path3292" /></clipPath><clipPath
       clipPathUnits="userSpaceOnUse"
       id="clipPath3312"><path
         d="M 911.513,225.392 L 1013.56,225.392 L 1013.56,321.769 L 911.513,321.769 L 911.513,225.392 z"
         id="path3314" /></clipPath><clipPath
       clipPathUnits="userSpaceOnUse"
       id="clipPath3322"><path
         d="M -30765.5,-32502.8 L 321.515,-32502.8 L 321.515,12774.7 L -30765.5,12774.7 L -30765.5,-32502.8 z"
         id="path3324" /></clipPath><clipPath
       clipPathUnits="userSpaceOnUse"
       id="clipPath3330"><path
         d="M 3646.052,901.569 L 4054.241,901.569 L 4054.241,1287.077 L 3646.052,1287.077 L 3646.052,901.569 z"
         id="path3332" /></clipPath><clipPath
       clipPathUnits="userSpaceOnUse"
       id="clipPath3340"><path
         d="M 32768,32768 L -32768,32768 L -32768,-32768 L 32768,-32768 L 32768,32768 z"
         id="path3342" /></clipPath><clipPath
       clipPathUnits="userSpaceOnUse"
       id="clipPath3348"><path
         d="M 1087.618,53.237 L 1189.665,53.237 L 1189.665,149.615 L 1087.618,149.615 L 1087.618,53.237 z"
         id="path3350" /></clipPath><clipPath
       clipPathUnits="userSpaceOnUse"
       id="clipPath3358"><path
         d="M -30589.4,-32330.7 L 579.619,-32330.7 L 579.619,9133.81 L -30589.4,9133.81 L -30589.4,-32330.7 z"
         id="path3360" /></clipPath><clipPath
       clipPathUnits="userSpaceOnUse"
       id="clipPath3366"><path
         d="M 4350.472,212.949 L 4758.661,212.949 L 4758.661,598.461 L 4350.472,598.461 L 4350.472,212.949 z"
         id="path3368" /></clipPath><clipPath
       clipPathUnits="userSpaceOnUse"
       id="clipPath3376"><path
         d="M 32768,32768 L -32768,32768 L -32768,-32768 L 32768,-32768 L 32768,32768 z"
         id="path3378" /></clipPath><clipPath
       clipPathUnits="userSpaceOnUse"
       id="clipPath3384"><path
         d="M 974.603,53.237 L 1076.65,53.237 L 1076.65,149.615 L 974.603,149.615 L 974.603,53.237 z"
         id="path3386" /></clipPath><clipPath
       clipPathUnits="userSpaceOnUse"
       id="clipPath3394"><path
         d="M -30702.4,-32330.7 L 644.602,-32330.7 L 644.602,13073.8 L -30702.4,13073.8 L -30702.4,-32330.7 z"
         id="path3396" /></clipPath><clipPath
       clipPathUnits="userSpaceOnUse"
       id="clipPath3402"><path
         d="M 3898.412,212.949 L 4306.6,212.949 L 4306.6,598.461 L 3898.412,598.461 L 3898.412,212.949 z"
         id="path3404" /></clipPath><clipPath
       clipPathUnits="userSpaceOnUse"
       id="clipPath3412"><path
         d="M 32768,32768 L -32768,32768 L -32768,-32768 L 32768,-32768 L 32768,32768 z"
         id="path3414" /></clipPath><clipPath
       clipPathUnits="userSpaceOnUse"
       id="clipPath3420"><path
         d="M 25.054,336.298 L 111.75,336.298 L 111.75,391.42 L 25.054,391.42 L 25.054,336.298 z"
         id="path3422" /></clipPath><clipPath
       clipPathUnits="userSpaceOnUse"
       id="clipPath3430"><path
         d="M -31574.3,-32664.4 L -27217.3,-32664.4 L -27217.3,-3734.44 L -31574.3,-3734.44 L -31574.3,-32664.4 z"
         id="path3432" /></clipPath><clipPath
       clipPathUnits="userSpaceOnUse"
       id="clipPath3438"><path
         d="M 100.216,1345.193 L 447,1345.193 L 447,1565.681 L 100.216,1565.681 L 100.216,1345.193 z"
         id="path3440" /></clipPath><clipPath
       clipPathUnits="userSpaceOnUse"
       id="clipPath3448"><path
         d="M 32768,32768 L -32768,32768 L -32768,-32768 L 32768,-32768 L 32768,32768 z"
         id="path3450" /></clipPath><clipPath
       clipPathUnits="userSpaceOnUse"
       id="clipPath3456"><path
         d="M 8.504,312.669 L 129.749,312.669 L 129.749,335.922 L 8.504,335.922 L 8.504,312.669 z"
         id="path3458" /></clipPath><clipPath
       clipPathUnits="userSpaceOnUse"
       id="clipPath3466"><path
         d="M -31556.6,-32612.7 L -31478.1,-32612.7 L -31478.1,14042.8 L -31556.6,14042.8 L -31556.6,-32612.7 z"
         id="path3468" /></clipPath><clipPath
       clipPathUnits="userSpaceOnUse"
       id="clipPath3474"><path
         d="M 34.016,1250.677 L 518.996,1250.677 L 518.996,1343.689 L 34.016,1343.689 L 34.016,1250.677 z"
         id="path3476" /></clipPath><clipPath
       clipPathUnits="userSpaceOnUse"
       id="clipPath3484"><path
         d="M 32768,32768 L -32768,32768 L -32768,-32768 L 32768,-32768 L 32768,32768 z"
         id="path3486" /></clipPath><clipPath
       clipPathUnits="userSpaceOnUse"
       id="clipPath3492"><path
         d="M 466.413,226.155 L 561.209,226.155 L 561.209,320.948 L 466.413,320.948 L 466.413,226.155 z"
         id="path3494" /></clipPath><clipPath
       clipPathUnits="userSpaceOnUse"
       id="clipPath3502"><path
         d="M -31210.6,-32503.6 L -24657.1,-32503.6 L -24657.1,26360.9 L -31210.6,26360.9 L -31210.6,-32503.6 z"
         id="path3504" /></clipPath><clipPath
       clipPathUnits="userSpaceOnUse"
       id="clipPath3510"><path
         d="M 1865.652,904.621 L 2244.836,904.621 L 2244.836,1283.793 L 1865.652,1283.793 L 1865.652,904.621 z"
         id="path3512" /></clipPath><clipPath
       clipPathUnits="userSpaceOnUse"
       id="clipPath3520"><path
         d="M 32768,32768 L -32768,32768 L -32768,-32768 L 32768,-32768 L 32768,32768 z"
         id="path3522" /></clipPath><clipPath
       clipPathUnits="userSpaceOnUse"
       id="clipPath3528"><path
         d="M 459.213,306.683 L 499.312,306.683 L 499.312,335.905 L 459.213,335.905 L 459.213,306.683 z"
         id="path3530" /></clipPath><clipPath
       clipPathUnits="userSpaceOnUse"
       id="clipPath3538"><path
         d="M -31211.1,-32584.2 L 19027.4,-32584.2 L 19027.4,-25184.7 L -31211.1,-25184.7 L -31211.1,-32584.2 z"
         id="path3540" /></clipPath><clipPath
       clipPathUnits="userSpaceOnUse"
       id="clipPath3546"><path
         d="M 1836.852,1226.733 L 1997.248,1226.733 L 1997.248,1343.621 L 1836.852,1343.621 L 1836.852,1226.733 z"
         id="path3548" /></clipPath><clipPath
       clipPathUnits="userSpaceOnUse"
       id="clipPath3556"><path
         d="M 32768,32768 L -32768,32768 L -32768,-32768 L 32768,-32768 L 32768,32768 z"
         id="path3558" /></clipPath><clipPath
       clipPathUnits="userSpaceOnUse"
       id="clipPath3564"><path
         d="M 180.709,136.168 L 214.863,136.168 L 214.863,164.693 L 180.709,164.693 L 180.709,136.168 z"
         id="path3566" /></clipPath><clipPath
       clipPathUnits="userSpaceOnUse"
       id="clipPath3574"><path
         d="M -31493.7,-32413.7 L 18744.8,-32413.7 L 18744.8,17689.3 L -31493.7,17689.3 L -31493.7,-32413.7 z"
         id="path3576" /></clipPath><clipPath
       clipPathUnits="userSpaceOnUse"
       id="clipPath3582"><path
         d="M 722.836,544.673 L 859.452,544.673 L 859.452,658.773 L 722.836,658.773 L 722.836,544.673 z"
         id="path3584" /></clipPath><clipPath
       clipPathUnits="userSpaceOnUse"
       id="clipPath3592"><path
         d="M 32768,32768 L -32768,32768 L -32768,-32768 L 32768,-32768 L 32768,32768 z"
         id="path3594" /></clipPath><clipPath
       clipPathUnits="userSpaceOnUse"
       id="clipPath3600"><path
         d="M 294.314,135.193 L 328.19,135.193 L 328.19,164.693 L 294.314,164.693 L 294.314,135.193 z"
         id="path3602" /></clipPath><clipPath
       clipPathUnits="userSpaceOnUse"
       id="clipPath3610"><path
         d="M 1385.62,356.832 L 1419.01,356.832 L 1419.01,385.506 L 1385.62,385.506 L 1385.62,356.832 z"
         id="path3612" /></clipPath><clipPath
       clipPathUnits="userSpaceOnUse"
       id="clipPath3618"><path
         d="M 1177.256,540.773 L 1312.76,540.773 L 1312.76,658.773 L 1177.256,658.773 L 1177.256,540.773 z"
         id="path3620" /></clipPath><clipPath
       clipPathUnits="userSpaceOnUse"
       id="clipPath3628"><path
         d="M -0.0635834,-1.02284 L 1.06963,-1.02284 L 1.06963,-0.0510101 L -0.0635834,-0.0510101 L -0.0635834,-1.02284 z"
         id="path3630" /></clipPath><clipPath
       clipPathUnits="userSpaceOnUse"
       id="clipPath3636"><path
         d="M 1177.256,540.773 L 1312.76,540.773 L 1312.76,658.773 L 1177.256,658.773 L 1177.256,540.773 z"
         id="path3638" /></clipPath><clipPath
       clipPathUnits="userSpaceOnUse"
       id="clipPath3644"><path
         d="M 1185.984,-121.035 L 1303.851,-121.035 L 1303.851,2501.543 L 1185.984,2501.543 L 1185.984,-121.035 z"
         id="path3646" /></clipPath><clipPath
       clipPathUnits="userSpaceOnUse"
       id="clipPath3676"><path
         d="M 406.938,135.471 L 442.205,135.471 L 442.205,164.693 L 406.938,164.693 L 406.938,135.471 z"
         id="path3678" /></clipPath><clipPath
       clipPathUnits="userSpaceOnUse"
       id="clipPath3686"><path
         d="M 1498.66,293.529 L 1532.05,293.529 L 1532.05,322.239 L 1498.66,322.239 L 1498.66,293.529 z"
         id="path3688" /></clipPath><clipPath
       clipPathUnits="userSpaceOnUse"
       id="clipPath3694"><path
         d="M 1627.752,541.885 L 1768.82,541.885 L 1768.82,658.773 L 1627.752,658.773 L 1627.752,541.885 z"
         id="path3696" /></clipPath><clipPath
       clipPathUnits="userSpaceOnUse"
       id="clipPath3704"><path
         d="M -0.0637512,1.12328 L 1.06946,1.12328 L 1.06946,2.10561 L -0.0637512,2.10561 L -0.0637512,1.12328 z"
         id="path3706" /></clipPath><clipPath
       clipPathUnits="userSpaceOnUse"
       id="clipPath3712"><path
         d="M 1627.752,541.885 L 1768.82,541.885 L 1768.82,658.773 L 1627.752,658.773 L 1627.752,541.885 z"
         id="path3714" /></clipPath><clipPath
       clipPathUnits="userSpaceOnUse"
       id="clipPath3720"><path
         d="M 1638.152,416.281 L 1756.019,416.281 L 1756.019,3038.859 L 1638.152,3038.859 L 1638.152,416.281 z"
         id="path3722" /></clipPath><clipPath
       clipPathUnits="userSpaceOnUse"
       id="clipPath3736"><path
         d="M 519.165,134.645 L 556.107,134.645 L 556.107,164.693 L 519.165,164.693 L 519.165,134.645 z"
         id="path3738" /></clipPath><clipPath
       clipPathUnits="userSpaceOnUse"
       id="clipPath3746"><path
         d="M -31154.4,-32412.2 L 19084.1,-32412.2 L 19084.1,2054.34 L -31154.4,2054.34 L -31154.4,-32412.2 z"
         id="path3748" /></clipPath><clipPath
       clipPathUnits="userSpaceOnUse"
       id="clipPath3754"><path
         d="M 2076.66,538.581 L 2224.428,538.581 L 2224.428,658.773 L 2076.66,658.773 L 2076.66,538.581 z"
         id="path3756" /></clipPath><clipPath
       clipPathUnits="userSpaceOnUse"
       id="clipPath3764"><path
         d="M 32768,32768 L -32768,32768 L -32768,-32768 L 32768,-32768 L 32768,32768 z"
         id="path3766" /></clipPath><clipPath
       clipPathUnits="userSpaceOnUse"
       id="clipPath3772"><path
         d="M 628.826,134.645 L 667.3,134.645 L 667.3,164.693 L 628.826,164.693 L 628.826,134.645 z"
         id="path3774" /></clipPath><clipPath
       clipPathUnits="userSpaceOnUse"
       id="clipPath3782"><path
         d="M -31043.3,-32416.3 L 19195.2,-32416.3 L 19195.2,-4044.29 L -31043.3,-4044.29 L -31043.3,-32416.3 z"
         id="path3784" /></clipPath><clipPath
       clipPathUnits="userSpaceOnUse"
       id="clipPath3790"><path
         d="M 2515.304,538.581 L 2669.2,538.581 L 2669.2,658.773 L 2515.304,658.773 L 2515.304,538.581 z"
         id="path3792" /></clipPath><clipPath
       clipPathUnits="userSpaceOnUse"
       id="clipPath3800"><path
         d="M 32768,32768 L -32768,32768 L -32768,-32768 L 32768,-32768 L 32768,32768 z"
         id="path3802" /></clipPath><clipPath
       clipPathUnits="userSpaceOnUse"
       id="clipPath3808"><path
         d="M 739.822,134.914 L 782.477,134.914 L 782.477,164.693 L 739.822,164.693 L 739.822,134.914 z"
         id="path3810" /></clipPath><clipPath
       clipPathUnits="userSpaceOnUse"
       id="clipPath3818"><path
         d="M 1837.53,295.947 L 1870.92,295.947 L 1870.92,324.63 L 1837.53,324.63 L 1837.53,295.947 z"
         id="path3820" /></clipPath><clipPath
       clipPathUnits="userSpaceOnUse"
       id="clipPath3826"><path
         d="M 2959.288,539.657 L 3129.908,539.657 L 3129.908,658.773 L 2959.288,658.773 L 2959.288,539.657 z"
         id="path3828" /></clipPath><clipPath
       clipPathUnits="userSpaceOnUse"
       id="clipPath3836"><path
         d="M -0.0640106,1.04019 L 1.0692,1.04019 L 1.0692,2.00327 L -0.0640106,2.00327 L -0.0640106,1.04019 z"
         id="path3838" /></clipPath><clipPath
       clipPathUnits="userSpaceOnUse"
       id="clipPath3844"><path
         d="M 2959.288,539.657 L 3129.908,539.657 L 3129.908,658.773 L 2959.288,658.773 L 2959.288,539.657 z"
         id="path3846" /></clipPath><clipPath
       clipPathUnits="userSpaceOnUse"
       id="clipPath3852"><path
         d="M 2993.656,1.029 L 3111.523,1.029 L 3111.523,2623.607 L 2993.656,2623.607 L 2993.656,1.029 z"
         id="path3854" /></clipPath><clipPath
       clipPathUnits="userSpaceOnUse"
       id="clipPath3884"><path
         d="M 854.613,134.217 L 899.218,134.217 L 899.218,164.693 L 854.613,164.693 L 854.613,134.217 z"
         id="path3886" /></clipPath><clipPath
       clipPathUnits="userSpaceOnUse"
       id="clipPath3894"><path
         d="M 1950.64,360.296 L 1984.04,360.296 L 1984.04,388.968 L 1950.64,388.968 L 1950.64,360.296 z"
         id="path3896" /></clipPath><clipPath
       clipPathUnits="userSpaceOnUse"
       id="clipPath3902"><path
         d="M 3418.452,536.869 L 3596.872,536.869 L 3596.872,658.773 L 3418.452,658.773 L 3418.452,536.869 z"
         id="path3904" /></clipPath><clipPath
       clipPathUnits="userSpaceOnUse"
       id="clipPath3912"><path
         d="M -0.0640869,-1.17328 L 1.06912,-1.17328 L 1.06912,-0.145432 L -0.0640869,-0.145432 L -0.0640869,-1.17328 z"
         id="path3914" /></clipPath><clipPath
       clipPathUnits="userSpaceOnUse"
       id="clipPath3920"><path
         d="M 3418.452,536.869 L 3596.872,536.869 L 3596.872,658.773 L 3418.452,658.773 L 3418.452,536.869 z"
         id="path3922" /></clipPath><clipPath
       clipPathUnits="userSpaceOnUse"
       id="clipPath3928"><path
         d="M 3446.128,-1973.779 L 3563.995,-1973.779 L 3563.995,648.799 L 3446.128,648.799 L 3446.128,-1973.779 z"
         id="path3930" /></clipPath><clipPath
       clipPathUnits="userSpaceOnUse"
       id="clipPath3940"><path
         d="M 966.897,135.471 L 1004.522,135.471 L 1004.522,164.693 L 966.897,164.693 L 966.897,135.471 z"
         id="path3942" /></clipPath><clipPath
       clipPathUnits="userSpaceOnUse"
       id="clipPath3950"><path
         d="M -30702.3,-32413 L 19536.2,-32413 L 19536.2,-25013.5 L -30702.3,-25013.5 L -30702.3,-32413 z"
         id="path3952" /></clipPath><clipPath
       clipPathUnits="userSpaceOnUse"
       id="clipPath3958"><path
         d="M 3867.588,541.885 L 4018.088,541.885 L 4018.088,658.773 L 3867.588,658.773 L 3867.588,541.885 z"
         id="path3960" /></clipPath><clipPath
       clipPathUnits="userSpaceOnUse"
       id="clipPath3968"><path
         d="M 32768,32768 L -32768,32768 L -32768,-32768 L 32768,-32768 L 32768,32768 z"
         id="path3970" /></clipPath><clipPath
       clipPathUnits="userSpaceOnUse"
       id="clipPath3976"><path
         d="M 1084.276,135.611 L 1121.443,135.611 L 1121.443,164.693 L 1084.276,164.693 L 1084.276,135.611 z"
         id="path3978" /></clipPath><clipPath
       clipPathUnits="userSpaceOnUse"
       id="clipPath3986"><path
         d="M -30589.4,-32413.1 L 19649.1,-32413.1 L 19649.1,-29580.1 L -30589.4,-29580.1 L -30589.4,-32413.1 z"
         id="path3988" /></clipPath><clipPath
       clipPathUnits="userSpaceOnUse"
       id="clipPath3994"><path
         d="M 4337.104,542.445 L 4485.773,542.445 L 4485.773,658.773 L 4337.104,658.773 L 4337.104,542.445 z"
         id="path3996" /></clipPath><clipPath
       clipPathUnits="userSpaceOnUse"
       id="clipPath4004"><path
         d="M 32768,32768 L -32768,32768 L -32768,-32768 L 32768,-32768 L 32768,32768 z"
         id="path4006" /></clipPath><clipPath
       clipPathUnits="userSpaceOnUse"
       id="clipPath4012"><path
         d="M 569.716,306.683 L 610.28,306.683 L 610.28,341.794 L 569.716,341.794 L 569.716,306.683 z"
         id="path4014" /></clipPath><clipPath
       clipPathUnits="userSpaceOnUse"
       id="clipPath4022"><path
         d="M 1661.71,187.166 L 1695.1,187.166 L 1695.1,215.882 L 1661.71,215.882 L 1661.71,187.166 z"
         id="path4024" /></clipPath><clipPath
       clipPathUnits="userSpaceOnUse"
       id="clipPath4030"><path
         d="M 2278.864,1226.733 L 2441.12,1226.733 L 2441.12,1367.177 L 2278.864,1367.177 L 2278.864,1226.733 z"
         id="path4032" /></clipPath><clipPath
       clipPathUnits="userSpaceOnUse"
       id="clipPath4040"><path
         d="M -0.0638428,-0.913239 L 1.06937,-0.913239 L 1.06937,-0.0955048 L -0.0638428,-0.0955048 L -0.0638428,-0.913239 z"
         id="path4042" /></clipPath><clipPath
       clipPathUnits="userSpaceOnUse"
       id="clipPath4048"><path
         d="M 2278.864,1226.733 L 2441.12,1226.733 L 2441.12,1367.177 L 2278.864,1367.177 L 2278.864,1226.733 z"
         id="path4050" /></clipPath><clipPath
       clipPathUnits="userSpaceOnUse"
       id="clipPath4056"><path
         d="M 2290.376,-143.363 L 2408.243,-143.363 L 2408.243,2479.215 L 2290.376,2479.215 L 2290.376,-143.363 z"
         id="path4058" /></clipPath><clipPath
       clipPathUnits="userSpaceOnUse"
       id="clipPath4072"><path
         d="M 683.135,309.192 L 722.445,309.192 L 722.445,335.905 L 683.135,335.905 L 683.135,309.192 z"
         id="path4074" /></clipPath><clipPath
       clipPathUnits="userSpaceOnUse"
       id="clipPath4082"><path
         d="M -30991.5,-32586.7 L 19247,-32586.7 L 19247,23687.3 L -30991.5,23687.3 L -30991.5,-32586.7 z"
         id="path4084" /></clipPath><clipPath
       clipPathUnits="userSpaceOnUse"
       id="clipPath4090"><path
         d="M 2732.54,1236.769 L 2889.78,1236.769 L 2889.78,1343.621 L 2732.54,1343.621 L 2732.54,1236.769 z"
         id="path4092" /></clipPath><clipPath
       clipPathUnits="userSpaceOnUse"
       id="clipPath4100"><path
         d="M 32768,32768 L -32768,32768 L -32768,-32768 L 32768,-32768 L 32768,32768 z"
         id="path4102" /></clipPath><clipPath
       clipPathUnits="userSpaceOnUse"
       id="clipPath4108"><path
         d="M 795.698,305.847 L 830.968,305.847 L 830.968,335.905 L 795.698,335.905 L 795.698,305.847 z"
         id="path4110" /></clipPath><clipPath
       clipPathUnits="userSpaceOnUse"
       id="clipPath4118"><path
         d="M 1887.55,186.537 L 1920.94,186.537 L 1920.94,215.226 L 1887.55,215.226 L 1887.55,186.537 z"
         id="path4120" /></clipPath><clipPath
       clipPathUnits="userSpaceOnUse"
       id="clipPath4126"><path
         d="M 3182.792,1223.389 L 3323.872,1223.389 L 3323.872,1343.621 L 3182.792,1343.621 L 3182.792,1223.389 z"
         id="path4128" /></clipPath><clipPath
       clipPathUnits="userSpaceOnUse"
       id="clipPath4136"><path
         d="M -0.0641174,-1.01585 L 1.06909,-1.01585 L 1.06909,-0.0615387 L -0.0641174,-0.0615387 L -0.0641174,-1.01585 z"
         id="path4138" /></clipPath><clipPath
       clipPathUnits="userSpaceOnUse"
       id="clipPath4144"><path
         d="M 3182.792,1223.389 L 3323.872,1223.389 L 3323.872,1343.621 L 3182.792,1343.621 L 3182.792,1223.389 z"
         id="path4146" /></clipPath><clipPath
       clipPathUnits="userSpaceOnUse"
       id="clipPath4152"><path
         d="M 3193.752,975.161 L 3311.619,975.161 L 3311.619,3597.739 L 3193.752,3597.739 L 3193.752,975.161 z"
         id="path4154" /></clipPath><clipPath
       clipPathUnits="userSpaceOnUse"
       id="clipPath4184"><path
         d="M 907.931,306.683 L 943.201,306.683 L 943.201,335.905 L 907.931,335.905 L 907.931,306.683 z"
         id="path4186" /></clipPath><clipPath
       clipPathUnits="userSpaceOnUse"
       id="clipPath4194"><path
         d="M -30765.7,-32584.2 L 19472.8,-32584.2 L 19472.8,-25184.7 L -30765.7,-25184.7 L -30765.7,-32584.2 z"
         id="path4196" /></clipPath><clipPath
       clipPathUnits="userSpaceOnUse"
       id="clipPath4202"><path
         d="M 3631.724,1226.733 L 3772.804,1226.733 L 3772.804,1343.621 L 3631.724,1343.621 L 3631.724,1226.733 z"
         id="path4204" /></clipPath><clipPath
       clipPathUnits="userSpaceOnUse"
       id="clipPath4212"><path
         d="M 32768,32768 L -32768,32768 L -32768,-32768 L 32768,-32768 L 32768,32768 z"
         id="path4214" /></clipPath><clipPath
       clipPathUnits="userSpaceOnUse"
       id="clipPath4220"><path
         d="M 1022.844,306.683 L 1054.49,306.683 L 1054.49,335.905 L 1022.844,335.905 L 1022.844,306.683 z"
         id="path4222" /></clipPath><clipPath
       clipPathUnits="userSpaceOnUse"
       id="clipPath4230"><path
         d="M -30652.5,-32584.2 L 19586,-32584.2 L 19586,-25184.7 L -30652.5,-25184.7 L -30652.5,-32584.2 z"
         id="path4232" /></clipPath><clipPath
       clipPathUnits="userSpaceOnUse"
       id="clipPath4238"><path
         d="M 4091.376,1226.733 L 4217.96,1226.733 L 4217.96,1343.621 L 4091.376,1343.621 L 4091.376,1226.733 z"
         id="path4240" /></clipPath><clipPath
       clipPathUnits="userSpaceOnUse"
       id="clipPath4248"><path
         d="M 32768,32768 L -32768,32768 L -32768,-32768 L 32768,-32768 L 32768,32768 z"
         id="path4250" /></clipPath><clipPath
       clipPathUnits="userSpaceOnUse"
       id="clipPath4256"><path
         d="M 1135.858,306.683 L 1167.504,306.683 L 1167.504,335.905 L 1135.858,335.905 L 1135.858,306.683 z"
         id="path4258" /></clipPath><clipPath
       clipPathUnits="userSpaceOnUse"
       id="clipPath4266"><path
         d="M 2226.59,187.454 L 2259.98,187.454 L 2259.98,216.164 L 2226.59,216.164 L 2226.59,187.454 z"
         id="path4268" /></clipPath><clipPath
       clipPathUnits="userSpaceOnUse"
       id="clipPath4274"><path
         d="M 4543.432,1226.733 L 4670.016,1226.733 L 4670.016,1343.621 L 4543.432,1343.621 L 4543.432,1226.733 z"
         id="path4276" /></clipPath><clipPath
       clipPathUnits="userSpaceOnUse"
       id="clipPath4284"><path
         d="M -0.0643311,-1.10579 L 1.06888,-1.10579 L 1.06888,-0.123459 L -0.0643311,-0.123459 L -0.0643311,-1.10579 z"
         id="path4286" /></clipPath><clipPath
       clipPathUnits="userSpaceOnUse"
       id="clipPath4292"><path
         d="M 4543.432,1226.733 L 4670.016,1226.733 L 4670.016,1343.621 L 4543.432,1343.621 L 4543.432,1226.733 z"
         id="path4294" /></clipPath><clipPath
       clipPathUnits="userSpaceOnUse"
       id="clipPath4300"><path
         d="M 4549.932,840.273 L 4667.799,840.273 L 4667.799,3462.851 L 4549.932,3462.851 L 4549.932,840.273 z"
         id="path4302" /></clipPath></defs><sodipodi:namedview
     inkscape:window-height="937"
     inkscape:window-width="1265"
     inkscape:pageshadow="2"
     inkscape:pageopacity="0.0"
     guidetolerance="10.0"
     gridtolerance="10.0"
     objecttolerance="10.0"
     borderopacity="1.0"
     bordercolor="#666666"
     pagecolor="#ffffff"
     id="base"
     showgrid="false"
     inkscape:zoom="0.55"
     inkscape:cx="589.63101"
     inkscape:cy="176.71468"
     inkscape:window-x="647"
     inkscape:window-y="0"
     inkscape:current-layer="g2412"
     units="cm" /><g
     id="g2412"
     inkscape:groupmode="layer"
     inkscape:label="depliant-securite"
     transform="matrix(1.25,0,0,-1.25,-70.781958,91.884161)"
     style="display:inline"><g
       id="g3286"
       transform="matrix(2.963545,0,0,2.9634927,-616.59132,-812.64478)"><g
         id="g3288"
         clip-path="url(#clipPath3290)"><path
           d="M 283.3842,243.6102 C 281.2593,244.6819 278.702,244.6673 277.1685,243.5699 L 277.3235,243.6642 L 273.8352,241.8706 L 273.6916,241.7974 L 273.5721,241.689 L 266.4849,235.2954 C 263.7676,233.49 261.0781,231.1692 258.476,228.9216 C 254.6176,225.588 250.9725,222.4398 247.5804,221.1828 C 247.5377,221.1654 245.5191,220.2786 244.0414,219.6288 C 244.061,219.9102 244.0938,220.173 244.1454,220.3452 C 244.6985,222.153 245.552,228.999 245.8968,232.9182 C 245.8956,232.905 245.9548,233.505 245.9548,233.505 C 247.6358,250.5826 248.4137,261.1292 245.0533,263.598 C 239.9108,267.3782 233.1928,261.0164 232.9092,260.744 L 232.7018,260.545 L 230.6598,254.9051 L 230.583,254.6927 L 230.5856,254.4668 L 230.6372,250.9245 C 230.6381,250.8838 230.859,246.5112 230.8936,245.8421 C 230.7811,244.7388 229.5699,233.1186 227.6964,222.8706 C 225.9444,213.2112 228.7894,201.3888 232.2605,198.8442 C 234.0702,197.5302 237.3093,198.105 239.5944,199.2018 L 246.1314,201.5922 C 246.159,201.6018 248.1131,202.3692 248.1131,202.3692 L 248.2508,202.4238 L 248.3718,202.5066 L 251.9677,205.0266 L 255.9195,207.363 C 255.9444,207.378 258.4803,208.962 258.4803,208.962 C 258.536,208.9992 265.9924,214.2618 266.5962,214.6884 C 281.4708,223.3368 285.2117,229.4988 286.8052,233.8968 C 288.5219,238.578 287.4665,241.5735 283.3842,243.6102"
           style="fill:#f9a30d;fill-opacity:1;fill-rule:nonzero;stroke:none"
           id="path3294" /><path
           d="M 316.1927,211.4658 L 312.5363,212.3772 C 308.4701,213.3684 305.1887,214.4586 304.2623,215.121 C 304.0127,215.4864 303.8621,217.0338 303.9845,218.0352 C 304.1512,219.3282 307.1789,222.0576 308.6243,221.8812 L 308.7539,221.865 L 313.3535,222.3138 L 316.4105,222.3828 L 319.7561,221.976 C 321.9857,221.6934 323.8954,218.3502 323.6891,216.6474 L 323.6363,216.1932 C 323.2487,212.793 322.5743,210.8658 320.2751,211.0812 C 320.2762,211.0812 316.7675,211.4118 316.1927,211.4658 z M 332.2421,228.699 C 329.4809,232.2288 325.4663,234.405 320.6309,234.9948 C 317.2643,235.2594 313.8071,235.7886 310.6337,234.3492 C 310.0517,234.2712 306.8195,233.7858 303.6155,232.3218 C 299.2673,230.2476 292.4849,224.3424 292.1993,224.0916 L 291.9779,223.899 L 291.8723,223.626 C 291.6197,222.9762 289.4489,217.3488 289.1681,215.559 L 286.9376,206.8392 C 286.0118,204.609 285.447,202.7328 285.2697,201.2706 C 284.9536,198.6924 286.3074,194.6526 286.4624,194.2002 L 286.514,194.0508 L 286.6028,193.9206 L 292.2467,185.592 L 293.2529,183.2562 L 293.3741,182.976 L 293.6141,182.79 L 298.0097,179.3658 C 298.3343,179.1126 306.0569,173.1348 312.2441,172.3734 C 313.4543,172.2288 316.1063,172.8912 316.8899,173.0976 C 316.9331,173.1102 320.0495,174.057 320.0495,174.057 L 320.2841,174.1284 L 320.4719,174.2868 L 324.3929,177.6078 C 324.5813,177.753 329.7875,181.8924 328.0685,186.0666 C 326.3357,190.2792 320.2961,189.2154 320.0405,189.1674 L 319.9438,189.1494 L 319.8515,189.117 L 315.847,187.6674 L 310.8173,187.8408 L 308.0525,188.928 C 302.6507,192.8352 300.2885,196.7136 299.2469,199.2954 C 299.0951,199.6764 299.3207,200.8326 300.2915,202.0956 C 300.7391,202.6758 302.3681,204.5514 304.5455,204.2838 C 306.7817,204.012 309.6443,203.1654 312.6767,202.269 C 316.3115,201.1944 320.0699,200.0832 323.6483,199.6416 C 326.5307,199.2876 329.4203,200.109 331.7855,201.9558 C 334.2287,203.865 335.8403,206.6796 336.2081,209.6772 C 337.1789,217.5594 335.8073,224.1372 332.2421,228.699"
           style="fill:#00abc4;fill-opacity:1;fill-rule:nonzero;stroke:none"
           id="path3296" /><path
           d="M 371.4161,186.723 L 371.3969,186.9174 L 370.6949,193.6062 C 370.7009,193.5486 370.1273,204.369 370.0853,205.1706 L 370.4081,214.176 L 370.4111,214.2438 L 370.4051,214.311 L 369.0413,231.7776 L 369.3305,236.9856 L 369.334,237.0798 L 369.3251,237.174 L 369.0401,239.8983 L 369.5891,256.3275 L 369.5915,256.4408 L 369.5759,256.5519 C 369.2075,258.8898 367.1093,270.5271 361.9577,270.0428 C 357.7931,269.6443 354.8699,267.2095 354.3257,263.6898 L 354.3155,263.6285 L 354.3137,263.5667 L 354.1757,260.8058 L 353.3783,256.483 L 353.3441,256.2976 L 353.3693,256.1124 C 353.3759,256.0608 354.0431,250.9658 354.0203,248.7888 C 353.9657,246.5329 353.0039,242.9464 352.9943,242.9106 L 352.9445,242.7267 L 352.9553,242.5356 L 353.2667,236.8686 L 352.6343,230.9532 L 352.6229,230.8434 L 352.6313,230.7336 L 353.9369,213.984 L 352.6337,203.7276 L 352.6115,203.5512 L 352.6427,203.3748 L 353.3188,199.461 L 353.8739,190.011 C 353.9021,188.5698 353.5277,186.423 353.1647,184.3464 C 352.6991,181.674 352.2161,178.9098 352.4273,176.853 C 352.9463,171.7272 357.6155,164.9718 361.5035,165.3456 C 366.6851,165.8328 370.3973,172.305 370.6121,178.0416 C 370.6127,178.0788 370.6265,182.4234 370.6295,183.2058 L 371.3735,186.5328 L 371.4161,186.723"
           style="fill:#e40e92;fill-opacity:1;fill-rule:nonzero;stroke:none"
           id="path3298" /><path
           d="M 396.5447,235.9524 C 400.6385,236.7732 404.2823,242.4055 403.0319,248.7184 C 402.1967,252.9082 399.5561,255.0009 395.1844,254.94 C 395.1077,254.9358 391.0073,254.6048 391.0073,254.6048 L 390.5159,254.5661 L 390.1955,254.1897 L 387.3953,250.8902 L 387.2471,250.7153 L 387.175,250.4979 L 385.7495,246.2306 L 385.6871,246.0513 L 385.6871,245.8632 L 385.6499,241.0977 L 385.6469,240.6572 L 388.3223,237.4944 C 390.0635,235.4142 393.8267,235.1556 396.6437,235.9776 L 396.5447,235.9524"
           style="fill:#99b819;fill-opacity:1;fill-rule:nonzero;stroke:none"
           id="path3300" /><path
           d="M 416.0981,182.4936 L 414.3851,191.5182 C 413.9015,194.1414 413.3759,198.5682 413.3705,198.6126 L 413.3627,198.669 L 413.3531,198.7236 L 412.6451,202.0158 C 412.6379,202.0422 409.9438,213.357 409.9438,213.357 C 409.951,213.3228 408.5687,220.0074 408.5687,220.0074 L 408.5399,220.1448 L 408.4817,220.2702 L 407.4881,222.399 C 406.7957,224.5614 404.5385,228.2736 400.6805,227.457 C 397.9505,226.8852 395.5223,223.6476 395.0525,221.0988 C 395.0411,221.0238 394.5641,217.0416 394.5641,217.0416 C 394.5695,217.071 394.0859,213.7488 394.0859,213.7488 C 393.1127,206.64 398.0531,192.5622 398.6183,190.9788 L 399.3869,184.5186 C 399.5633,183.5562 399.5387,182.376 399.5177,181.4292 C 399.5015,180.6828 399.4895,180.096 399.5621,179.6718 C 400.2682,175.9626 401.3441,173.8086 403.0577,172.671 C 404.3585,171.807 405.9641,171.594 407.9669,172.0206 C 413.1449,173.1066 415.8881,175.4082 416.1155,178.8618 C 416.1179,178.9392 416.1179,182.2722 416.1179,182.2722 L 416.1179,182.3844 L 416.0981,182.4936"
           style="fill:#99b819;fill-opacity:1;fill-rule:nonzero;stroke:none"
           id="path3302" /><path
           d="M 509.5391,290.132 C 507.6845,294.0926 504.6143,297.005 500.8895,298.3333 C 493.9859,300.7776 484.7141,296.4653 482.1719,289.6292 C 480.2327,284.3502 481.7549,280.5753 481.8179,280.4165 L 481.8923,280.2378 L 482.0201,280.0919 L 484.9445,276.7254 C 484.9505,276.7192 486.8993,274.5044 486.8993,274.5044 L 487.0169,274.3697 L 487.1705,274.275 L 489.7553,272.6997 L 487.6343,270.0938 C 486.1001,269.269 482.0771,266.9394 481.3313,264.8596 C 480.6143,262.9277 480.5915,261.2054 481.2593,259.7493 C 481.9529,258.2405 483.3641,257.0851 485.4521,256.3131 C 488.6639,255.1107 494.4947,259.3553 495.7889,260.3458 C 498.5111,261.5423 499.9151,263.1349 502.2251,265.1757 L 502.2785,265.2399 L 504.3041,267.5851 L 506.9501,270.0818 L 507.1007,270.2247 L 507.1931,270.4101 C 507.2783,270.5739 509.2391,274.4622 510.3971,277.5246 C 511.7855,281.301 511.4645,286.0143 509.5391,290.132"
           style="fill:#9f3ca4;fill-opacity:1;fill-rule:nonzero;stroke:none"
           id="path3304" /><path
           d="M 471.8393,217.3608 L 471.8039,217.1982 L 470.2523,214.9074 L 470.1701,214.7868 L 470.1191,214.6488 L 468.5543,210.3786 C 467.5631,209.5152 462.9299,206.2446 462.2153,205.9224 C 459.9053,204.9876 457.5406,205.1118 455.2007,206.2944 C 451.6763,208.074 448.6475,212.1594 447.4817,216.699 C 445.855,223.0692 453.0857,230.8752 462.9509,233.4036 C 464.2408,233.7348 465.3911,233.586 466.4693,232.9464 C 470.0039,230.8542 471.6887,224.2518 472.2419,222.0816 C 472.2419,222.0816 472.3031,221.8464 472.3031,221.841 C 472.5803,220.7904 472.0984,218.559 471.8393,217.3608 z M 486.5639,227.409 C 485.4341,231.8538 481.8743,238.2006 481.7225,238.4688 L 481.6691,238.5606 L 481.6031,238.6422 L 478.6193,242.2561 L 478.4518,242.4577 L 478.2173,242.5708 L 476.6645,243.315 L 473.8307,246.1345 L 473.5397,246.4222 L 470.9465,246.738 C 469.0253,247.6251 464.4791,249.6068 458.4305,248.0669 C 455.9663,247.4317 450.0497,245.1595 449.7989,245.0628 L 449.6873,245.0195 L 449.5847,244.9532 C 449.4017,244.8366 445.1027,242.0669 442.9385,239.507 C 442.1543,238.515 441.6707,237.3582 441.2422,236.3388 C 440.9633,235.6692 440.4947,234.5484 440.2079,234.4086 C 439.6787,234.2712 439.4327,234.2166 438.8177,235.5072 C 438.8207,235.5 438.1691,236.8896 438.0005,237.249 L 435.6443,245.5333 C 435.6335,245.5726 433.7237,251.5037 433.7237,251.5037 L 433.6901,251.6092 L 433.6391,251.7059 L 432.2405,254.2904 L 428.4755,267.9665 C 428.1131,269.3974 426.9665,270.4395 425.2571,270.8789 C 422.3447,271.6269 418.4543,270.4869 416.3975,268.285 C 414.8633,266.6417 414.4133,264.5473 415.1273,262.389 C 415.1165,262.4215 418.6571,250.6128 418.6571,250.6128 C 418.6391,250.6731 421.1075,240.5077 421.1075,240.5077 L 421.1405,240.3701 L 421.2053,240.2423 L 422.9183,236.9262 L 426.8627,224.0526 L 426.9137,223.8864 L 427.0109,223.74 L 429.4156,220.1436 L 434.1659,206.106 L 434.2151,205.9614 L 434.2997,205.8336 L 436.2773,202.821 L 437.2781,198.903 C 437.7701,196.9914 438.2741,196.1658 438.7175,195.4374 C 439.0127,194.9556 439.2455,194.5752 439.4789,193.8588 C 440.3747,191.2752 440.9633,187.0638 440.9681,187.0218 L 441.0221,186.6264 L 441.3017,186.3456 C 441.4913,186.1542 445.9961,181.6836 450.6983,182.8776 C 453.2603,183.5178 454.0919,185.907 454.8245,188.0154 L 454.9438,188.3634 C 455.4029,189.7272 458.9549,192.0534 461.7983,192.0534 C 465.0359,192.0534 468.5747,194.2164 469.3049,194.6844 L 475.3079,196.7328 L 475.5275,196.8066 L 475.7027,196.959 L 477.9101,198.8706 C 479.4881,199.7262 491.7557,207.123 486.5639,227.409"
           style="fill:#1063a6;fill-opacity:1;fill-rule:nonzero;stroke:none"
           id="path3306" /></g></g></g></svg>